<?xml version="1.0" encoding="UTF-8" standalone="no"?>
<!-- Created with Inkscape (http://www.inkscape.org/) -->

<svg
   xmlns:dc="http://purl.org/dc/elements/1.1/"
   xmlns:cc="http://creativecommons.org/ns#"
   xmlns:rdf="http://www.w3.org/1999/02/22-rdf-syntax-ns#"
   xmlns:svg="http://www.w3.org/2000/svg"
   xmlns="http://www.w3.org/2000/svg"
   xmlns:xlink="http://www.w3.org/1999/xlink"
   xmlns:sodipodi="http://sodipodi.sourceforge.net/DTD/sodipodi-0.dtd"
   xmlns:inkscape="http://www.inkscape.org/namespaces/inkscape"
   width="128"
   height="128"
   id="svg2"
   sodipodi:version="0.32"
   inkscape:version="0.48.0 r9654"
   sodipodi:docname="cast_stop.svg"
   inkscape:output_extension="org.inkscape.output.svg.inkscape"
   version="1.0"
   inkscape:export-filename="/home/nicu/Desktop/pacman/pacman.png"
   inkscape:export-xdpi="90"
   inkscape:export-ydpi="90">
  <defs
     id="defs4">
    <inkscape:perspective
       sodipodi:type="inkscape:persp3d"
       inkscape:vp_x="-50 : 600 : 1"
       inkscape:vp_y="0 : 1000 : 0"
       inkscape:vp_z="700 : 600 : 1"
       inkscape:persp3d-origin="300 : 400 : 1"
       id="perspective2543" />
    <linearGradient
       id="linearGradient4072">
      <stop
         style="stop-color:#000000;stop-opacity:1;"
         offset="0"
         id="stop4074" />
      <stop
         style="stop-color:#000000;stop-opacity:0;"
         offset="1"
         id="stop4076" />
    </linearGradient>
    <linearGradient
       id="linearGradient2315">
      <stop
         style="stop-color:#000000;stop-opacity:0;"
         offset="0"
         id="stop2317" />
      <stop
         style="stop-color:#000000;stop-opacity:0.57195574;"
         offset="1"
         id="stop2319" />
    </linearGradient>
    <radialGradient
       inkscape:collect="always"
       xlink:href="#linearGradient2315"
       id="radialGradient2342"
       cx="216.99271"
       cy="497.9592"
       fx="216.99271"
       fy="497.9592"
       r="65"
       gradientUnits="userSpaceOnUse"
       gradientTransform="matrix(0.7158046,1.4128374,-1.3538472,0.6859177,735.83621,-155.77224)" />
    <radialGradient
       inkscape:collect="always"
       xlink:href="#linearGradient2315"
       id="radialGradient2365"
       gradientUnits="userSpaceOnUse"
       gradientTransform="matrix(0.387095,1.5161279,-1.4234088,0.3634221,726.51481,-93.106615)"
       cx="233.49998"
       cy="409.86218"
       fx="233.49998"
       fy="409.86218"
       r="15.5" />
    <radialGradient
       inkscape:collect="always"
       xlink:href="#linearGradient2315"
       id="radialGradient2367"
       gradientUnits="userSpaceOnUse"
       gradientTransform="matrix(0.387095,1.5161279,-1.4234088,0.3634221,726.51481,-93.106615)"
       cx="233.49998"
       cy="409.86218"
       fx="233.49998"
       fy="409.86218"
       r="15.5" />
    <filter
       inkscape:collect="always"
       id="filter3730"
       x="-0.34801543"
       width="1.6960309"
       y="-0.34084839"
       height="1.6816968">
      <feGaussianBlur
         inkscape:collect="always"
         stdDeviation="5.4650567"
         id="feGaussianBlur3732" />
    </filter>
    <filter
       inkscape:collect="always"
       id="filter4065"
       x="-0.51975077"
       width="2.0395014"
       y="-0.45338511"
       height="1.9067702">
      <feGaussianBlur
         inkscape:collect="always"
         stdDeviation="4.1511594"
         id="feGaussianBlur4067" />
    </filter>
    <radialGradient
       inkscape:collect="always"
       xlink:href="#linearGradient4072"
       id="radialGradient4078"
       cx="210.88904"
       cy="506.35242"
       fx="210.88904"
       fy="506.35242"
       r="68"
       gradientTransform="matrix(1.4028467,1.6438735e-6,-1.4520791e-7,0.2058824,-89.844917,403.11278)"
       gradientUnits="userSpaceOnUse" />
    <filter
       inkscape:collect="always"
       id="filter4112"
       x="-0.070020586"
       width="1.1400412"
       y="-0.34009999"
       height="1.6802">
      <feGaussianBlur
         inkscape:collect="always"
         stdDeviation="3.9678331"
         id="feGaussianBlur4114" />
    </filter>
    <linearGradient
       id="linearGradient7916">
      <stop
         style="stop-color:#ffffff;stop-opacity:1;"
         offset="0"
         id="stop7918" />
      <stop
         style="stop-color:#ffffff;stop-opacity:0.34020618;"
         offset="1.0000000"
         id="stop7920" />
    </linearGradient>
    <linearGradient
       inkscape:collect="always"
       xlink:href="#linearGradient7916"
       id="linearGradient3045"
       gradientUnits="userSpaceOnUse"
       gradientTransform="translate(278.59845,193.70353)"
       x1="16.874998"
       y1="22.851799"
       x2="27.900846"
       y2="34.976799" />
    <linearGradient
       inkscape:collect="always"
       xlink:href="#linearGradient2817"
       id="linearGradient2823"
       gradientUnits="userSpaceOnUse"
       gradientTransform="matrix(1.103262,0,0,1.054917,-163.1228,-76.31138)"
       x1="174.83363"
       y1="84.263489"
       x2="174.74524"
       y2="105.49083" />
    <linearGradient
       id="linearGradient2817">
      <stop
         style="stop-color:#000000;stop-opacity:1;"
         offset="0"
         id="stop2819" />
      <stop
         style="stop-color:#ffffff;stop-opacity:0.48453608;"
         offset="1"
         id="stop2821" />
    </linearGradient>
    <linearGradient
       inkscape:collect="always"
       xlink:href="#linearGradient2697"
       id="linearGradient2803"
       gradientUnits="userSpaceOnUse"
       gradientTransform="matrix(1,0,0,1.004384,-145.0004,-71.4625)"
       x1="169"
       y1="110.33805"
       x2="169"
       y2="93.204849" />
    <linearGradient
       id="linearGradient2697">
      <stop
         id="stop2699"
         offset="0"
         style="stop-color:#babdb6" />
      <stop
         id="stop2701"
         offset="1"
         style="stop-color:#555753" />
    </linearGradient>
    <linearGradient
       inkscape:collect="always"
       xlink:href="#linearGradient3081"
       id="linearGradient2800"
       gradientUnits="userSpaceOnUse"
       gradientTransform="translate(-4e-4,-0.09426)"
       x1="15.089521"
       y1="15.291994"
       x2="14"
       y2="52.510574" />
    <linearGradient
       inkscape:collect="always"
       id="linearGradient3081">
      <stop
         style="stop-color:#ffffff;stop-opacity:1;"
         offset="0"
         id="stop3083" />
      <stop
         style="stop-color:#ffffff;stop-opacity:0;"
         offset="1"
         id="stop3085" />
    </linearGradient>
    <linearGradient
       inkscape:collect="always"
       xlink:href="#linearGradient2817"
       id="linearGradient2858"
       gradientUnits="userSpaceOnUse"
       gradientTransform="matrix(1.103262,0,0,1.054917,-163.1228,-76.31138)"
       x1="174.83363"
       y1="84.263489"
       x2="174.74524"
       y2="105.49083" />
    <linearGradient
       id="linearGradient3154">
      <stop
         style="stop-color:#000000;stop-opacity:1;"
         offset="0"
         id="stop3156" />
      <stop
         style="stop-color:#ffffff;stop-opacity:0.48453608;"
         offset="1"
         id="stop3158" />
    </linearGradient>
    <linearGradient
       inkscape:collect="always"
       xlink:href="#linearGradient2697"
       id="linearGradient2862"
       gradientUnits="userSpaceOnUse"
       gradientTransform="matrix(1,0,0,1.004384,-145.0004,-71.4625)"
       x1="169"
       y1="110.33805"
       x2="169"
       y2="93.204849" />
    <linearGradient
       id="linearGradient3161">
      <stop
         id="stop3163"
         offset="0"
         style="stop-color:#babdb6" />
      <stop
         id="stop3165"
         offset="1"
         style="stop-color:#555753" />
    </linearGradient>
    <linearGradient
       inkscape:collect="always"
       xlink:href="#linearGradient3081"
       id="linearGradient2864"
       gradientUnits="userSpaceOnUse"
       gradientTransform="translate(-4e-4,-0.09426)"
       x1="15.089521"
       y1="15.291994"
       x2="14"
       y2="52.510574" />
  </defs>
  <sodipodi:namedview
     id="base"
     pagecolor="#ffffff"
     bordercolor="#666666"
     borderopacity="1.0"
     gridtolerance="10000"
     guidetolerance="10"
     objecttolerance="10"
     inkscape:pageopacity="0.0"
     inkscape:pageshadow="2"
     inkscape:zoom="0.721875"
     inkscape:cx="68.294372"
     inkscape:cy="-80.097762"
     inkscape:document-units="px"
     inkscape:current-layer="layer1"
     showgrid="false"
     inkscape:window-width="937"
     inkscape:window-height="717"
     inkscape:window-x="674"
     inkscape:window-y="205"
     showguides="true"
     inkscape:guide-bbox="true"
     height="640px"
     width="128px"
     inkscape:window-maximized="0">
    <inkscape:grid
       type="xygrid"
       id="grid3194"
       originx="0px"
       originy="0px"
       spacingx="0px"
       spacingy="0px" />
  </sodipodi:namedview>
  <metadata
     id="metadata7">
    <rdf:RDF>
      <cc:Work
         rdf:about="">
        <dc:format>image/svg+xml</dc:format>
        <dc:type
           rdf:resource="http://purl.org/dc/dcmitype/StillImage" />
        <dc:title />
        <dc:date />
        <dc:creator>
          <cc:Agent>
            <dc:title />
          </cc:Agent>
        </dc:creator>
        <dc:rights>
          <cc:Agent>
            <dc:title />
          </cc:Agent>
        </dc:rights>
        <dc:publisher>
          <cc:Agent>
            <dc:title />
          </cc:Agent>
        </dc:publisher>
        <dc:identifier />
        <dc:source />
        <dc:relation />
        <dc:language />
        <dc:subject>
          <rdf:Bag />
        </dc:subject>
        <dc:coverage />
        <dc:description />
        <dc:contributor>
          <cc:Agent>
            <dc:title />
          </cc:Agent>
        </dc:contributor>
        <cc:license
           rdf:resource="" />
      </cc:Work>
    </rdf:RDF>
  </metadata>
  <g
     inkscape:label="Layer 1"
     inkscape:groupmode="layer"
     id="layer1"
     transform="translate(-233.42021,-11.73452)">
    <g
       id="g2398"
       transform="matrix(0.53915651,0,0,0.53915651,166.47788,-145.18545)">
      <path
         id="path4069"
         d="m 274,507.36218 c 0,7.728 -30.464,14 -68,14 -37.536,0 -68,-6.272 -68,-14 0,-7.728 30.464,-14 68,-14 37.536,0 68,6.272 68,14 z"
         style="fill:url(#radialGradient4078);fill-opacity:1;stroke:none;filter:url(#filter4112)"
         transform="matrix(1.0588235,0,0,0.8571429,-9.117647,72.480312)"
         inkscape:connector-curvature="0" />
      <path
         sodipodi:nodetypes="cccsssccssc"
         id="path2327"
         d="m 305,531.36218 c 0,4.84287 -0.53051,37.56259 -1.53654,42.10417 -2.4742,12.45921 -10.48333,19.63252 -22.51062,22.36274 -5.59014,1.04284 -11.94871,-21.82388 -18.84956,-21.95132 -6.90086,-0.12744 -14.344,22.48441 -22.10328,22.48441 -7.79566,0 -15.2722,-22.62465 -22.2003,-22.51962 -6.92809,0.10504 -13.30773,22.93976 -18.90959,21.8585 -12.68377,-2.10494 -19.31565,-10.7812 -22.44296,-22.64457 C 175.49911,568.64103 175,536.05954 175,531.36218 c 0,-35.88 29.12,-65 65,-65 35.88,0 65,29.12 65,65 z"
         style="fill:#0000ff;fill-opacity:1;stroke:none"
         transform="translate(-31,-85)"
         inkscape:connector-curvature="0" />
      <path
         transform="translate(-31,-85)"
         style="fill:url(#radialGradient2342);fill-opacity:1;stroke:none"
         d="m 305,531.36218 c 0,4.84287 -0.53051,37.56259 -1.53654,42.10417 -2.4742,12.45921 -10.48333,19.63252 -22.51062,22.36274 -5.59014,1.04284 -11.94871,-21.82388 -18.84956,-21.95132 -6.90086,-0.12744 -14.344,22.48441 -22.10328,22.48441 -7.79566,0 -15.2722,-22.62465 -22.2003,-22.51962 -6.92809,0.10504 -13.30773,22.93976 -18.90959,21.8585 -12.68377,-2.10494 -19.31565,-10.7812 -22.44296,-22.64457 C 175.49911,568.64103 175,536.05954 175,531.36218 c 0,-35.88 29.12,-65 65,-65 35.88,0 65,29.12 65,65 z"
         id="path2340"
         sodipodi:nodetypes="cccsssccssc"
         inkscape:connector-curvature="0" />
      <g
         transform="translate(5,10)"
         id="g2352">
        <path
           sodipodi:type="arc"
           style="fill:#ffffff;fill-opacity:1;stroke:none"
           id="path2344"
           sodipodi:cx="239.5"
           sodipodi:cy="417.86218"
           sodipodi:rx="15.5"
           sodipodi:ry="15.5"
           d="m 255,417.86218 c 0,8.56042 -6.93959,15.5 -15.5,15.5 -8.56041,0 -15.5,-6.93958 -15.5,-15.5 0,-8.56041 6.93959,-15.5 15.5,-15.5 8.56041,0 15.5,6.93959 15.5,15.5 z"
           transform="translate(4,7)" />
        <path
           transform="translate(4,7)"
           d="m 255,417.86218 c 0,8.56042 -6.93959,15.5 -15.5,15.5 -8.56041,0 -15.5,-6.93958 -15.5,-15.5 0,-8.56041 6.93959,-15.5 15.5,-15.5 8.56041,0 15.5,6.93959 15.5,15.5 z"
           sodipodi:ry="15.5"
           sodipodi:rx="15.5"
           sodipodi:cy="417.86218"
           sodipodi:cx="239.5"
           id="path2346"
           style="fill:url(#radialGradient2367);fill-opacity:1;stroke:none"
           sodipodi:type="arc" />
        <path
           sodipodi:type="arc"
           style="fill:#000000;fill-opacity:1;stroke:none"
           id="path2350"
           sodipodi:cx="239.5"
           sodipodi:cy="417.86218"
           sodipodi:rx="15.5"
           sodipodi:ry="15.5"
           d="m 255,417.86218 c 0,8.56042 -6.93959,15.5 -15.5,15.5 -8.56041,0 -15.5,-6.93958 -15.5,-15.5 0,-8.56041 6.93959,-15.5 15.5,-15.5 8.56041,0 15.5,6.93959 15.5,15.5 z"
           transform="matrix(0.6129032,0,0,0.6129032,101.70968,169.7531)" />
      </g>
      <g
         transform="translate(-35,10)"
         id="g2357">
        <path
           transform="translate(4,7)"
           d="m 255,417.86218 c 0,8.56042 -6.93959,15.5 -15.5,15.5 -8.56041,0 -15.5,-6.93958 -15.5,-15.5 0,-8.56041 6.93959,-15.5 15.5,-15.5 8.56041,0 15.5,6.93959 15.5,15.5 z"
           sodipodi:ry="15.5"
           sodipodi:rx="15.5"
           sodipodi:cy="417.86218"
           sodipodi:cx="239.5"
           id="path2359"
           style="fill:#ffffff;fill-opacity:1;stroke:none"
           sodipodi:type="arc" />
        <path
           sodipodi:type="arc"
           style="fill:url(#radialGradient2365);fill-opacity:1;stroke:none"
           id="path2361"
           sodipodi:cx="239.5"
           sodipodi:cy="417.86218"
           sodipodi:rx="15.5"
           sodipodi:ry="15.5"
           d="m 255,417.86218 c 0,8.56042 -6.93959,15.5 -15.5,15.5 -8.56041,0 -15.5,-6.93958 -15.5,-15.5 0,-8.56041 6.93959,-15.5 15.5,-15.5 8.56041,0 15.5,6.93959 15.5,15.5 z"
           transform="translate(4,7)" />
        <path
           transform="matrix(0.6129032,0,0,0.6129032,101.70968,169.7531)"
           d="m 255,417.86218 c 0,8.56042 -6.93959,15.5 -15.5,15.5 -8.56041,0 -15.5,-6.93958 -15.5,-15.5 0,-8.56041 6.93959,-15.5 15.5,-15.5 8.56041,0 15.5,6.93959 15.5,15.5 z"
           sodipodi:ry="15.5"
           sodipodi:rx="15.5"
           sodipodi:cy="417.86218"
           sodipodi:cx="239.5"
           id="path2363"
           style="fill:#000000;fill-opacity:1;stroke:none"
           sodipodi:type="arc" />
      </g>
      <path
         id="path2371"
         d="m 180.00895,413.25201 c -10.02556,10.26977 -20.40625,16.41401 -23.17119,13.71483 -2.76493,-2.6992 3.12774,-13.22472 13.15329,-23.49449 10.02556,-10.26977 20.40625,-16.41401 23.17119,-13.71483 2.76493,2.6992 -3.12774,13.22472 -13.15329,23.49449 z"
         style="fill:#ffffff;fill-opacity:0.62745098;stroke:none;filter:url(#filter3730)"
         inkscape:connector-curvature="0" />
      <path
         id="path3734"
         d="m 262,501.86218 c 0,7.452 -2.464,13.5 -5.5,13.5 -3.036,0 -5.5,-6.048 -5.5,-13.5 0,-7.452 2.464,-13.5 5.5,-13.5 3.036,0 5.5,6.048 5.5,13.5 z"
         style="fill:#ffffff;fill-opacity:0.43438912;stroke:none;filter:url(#filter4065)"
         transform="matrix(0.7712592,0.6365212,-0.6365212,0.7712592,379.11791,-54.471338)"
         inkscape:connector-curvature="0" />
    </g>
    <g
       transform="matrix(2.9500298,0,0,2.9500298,252.06713,-19.134422)"
       style="display:inline;fill:#aa0000"
       id="g3117">
      <g
         style="fill:#aa0000"
         id="g2837">
        <path
           inkscape:connector-curvature="0"
           style="opacity:0.14999999999999999;color:#000000;fill:#aa0000;fill-opacity:1;fill-rule:evenodd;stroke:url(#linearGradient2823);stroke-width:1.99999952000000003;stroke-linecap:square;stroke-linejoin:round;stroke-miterlimit:4;stroke-opacity:1;stroke-dasharray:none;stroke-dashoffset:0;marker:none;visibility:visible;display:inline;overflow:visible"
           d="m 26.086565,12.829103 0,22.153256 8.826093,0 0,-22.153256 -8.826093,0 z"
           id="path2815"
           inkscape:r_cx="true"
           inkscape:r_cy="true" />
        <path
           inkscape:connector-curvature="0"
           style="color:#000000;fill:#aa0000;fill-opacity:1;fill-rule:evenodd;stroke:none;stroke-width:1;marker:none;visibility:visible;display:inline;overflow:visible"
           d="m 26.4996,13.40575 0,21 8,0 0,-21 -8,0 z"
           id="path2827" />
        <path
           inkscape:connector-curvature="0"
           inkscape:r_cy="true"
           inkscape:r_cx="true"
           id="path2762"
           d="m 26.4996,13.407946 0,21.092064 8,0 0,-21.092064 -8,0 z"
           style="color:#000000;fill:#aa0000;fill-opacity:1;fill-rule:evenodd;stroke:url(#linearGradient2803);stroke-width:1.00000011999999994;stroke-linecap:square;stroke-linejoin:round;stroke-miterlimit:4;stroke-opacity:1;stroke-dasharray:none;stroke-dashoffset:0;marker:none;visibility:visible;display:inline;overflow:visible" />
        <path
           inkscape:connector-curvature="0"
           style="color:#000000;fill:#aa0000;fill-opacity:1;fill-rule:evenodd;stroke:url(#linearGradient2800);stroke-width:0.99999970000000005;stroke-linecap:square;stroke-linejoin:miter;stroke-miterlimit:4;stroke-opacity:1;stroke-dasharray:none;stroke-dashoffset:0;marker:none;visibility:visible;display:inline;overflow:visible"
           d="m 27.4996,14.40575 0,19 6,0 0,-19 -6,0 z"
           id="path2811" />
        <path
           inkscape:connector-curvature="0"
           style="opacity:0.50000000000000000;color:#000000;fill:#aa0000;fill-opacity:1;fill-rule:nonzero;stroke:none;stroke-width:2;marker:none;visibility:visible;display:block;overflow:visible"
           d="m 28.019106,14.942758 0,8.385631 4.993942,-0.618719 0,-7.8553 -4.993942,0.08839 z"
           id="path2479"
           inkscape:r_cx="true"
           inkscape:r_cy="true"
           sodipodi:nodetypes="ccccc" />
      </g>
      <g
         style="fill:#aa0000"
         transform="translate(-12.97229,0)"
         inkscape:r_cy="true"
         inkscape:r_cx="true"
         id="use2844">
        <path
           inkscape:connector-curvature="0"
           inkscape:r_cy="true"
           inkscape:r_cx="true"
           id="path2848"
           d="m 26.086565,12.829103 0,22.153256 8.826093,0 0,-22.153256 -8.826093,0 z"
           style="opacity:0.14999999999999999;color:#000000;fill:#aa0000;fill-opacity:1;fill-rule:evenodd;stroke:url(#linearGradient2858);stroke-width:1.99999952000000003;stroke-linecap:square;stroke-linejoin:round;stroke-miterlimit:4;stroke-opacity:1;stroke-dasharray:none;stroke-dashoffset:0;marker:none;visibility:visible;display:inline;overflow:visible" />
        <path
           inkscape:connector-curvature="0"
           inkscape:r_cy="true"
           inkscape:r_cx="true"
           id="path2850"
           d="m 26.4996,13.40575 0,21 8,0 0,-21 -8,0 z"
           style="color:#000000;fill:#aa0000;fill-opacity:1;fill-rule:evenodd;stroke:none;stroke-width:1;marker:none;visibility:visible;display:inline;overflow:visible" />
        <path
           inkscape:connector-curvature="0"
           style="color:#000000;fill:#aa0000;fill-opacity:1;fill-rule:evenodd;stroke:url(#linearGradient2862);stroke-width:1.00000011999999994;stroke-linecap:square;stroke-linejoin:round;stroke-miterlimit:4;stroke-opacity:1;stroke-dasharray:none;stroke-dashoffset:0;marker:none;visibility:visible;display:inline;overflow:visible"
           d="m 26.4996,13.407946 0,21.092064 8,0 0,-21.092064 -8,0 z"
           id="path2852"
           inkscape:r_cx="true"
           inkscape:r_cy="true" />
        <path
           inkscape:connector-curvature="0"
           inkscape:r_cy="true"
           inkscape:r_cx="true"
           id="path2854"
           d="m 27.4996,14.40575 0,19 6,0 0,-19 -6,0 z"
           style="color:#000000;fill:#aa0000;fill-opacity:1;fill-rule:evenodd;stroke:url(#linearGradient2864);stroke-width:0.99999970000000005;stroke-linecap:square;stroke-linejoin:miter;stroke-miterlimit:4;stroke-opacity:1;stroke-dasharray:none;stroke-dashoffset:0;marker:none;visibility:visible;display:inline;overflow:visible" />
        <path
           inkscape:connector-curvature="0"
           sodipodi:nodetypes="ccccc"
           inkscape:r_cy="true"
           inkscape:r_cx="true"
           id="path2856"
           d="m 28.019106,14.942758 0,10.06501 4.993942,-0.618719 0,-9.534679 -4.993942,0.08839 z"
           style="opacity:0.50000000000000000;color:#000000;fill:#aa0000;fill-opacity:1;fill-rule:nonzero;stroke:none;stroke-width:2;marker:none;visibility:visible;display:block;overflow:visible" />
      </g>
    </g>
  </g>
</svg>
