<?xml version="1.0" encoding="UTF-8" standalone="no"?>
<!-- Created with Inkscape (http://www.inkscape.org/) -->

<svg
   xmlns:dc="http://purl.org/dc/elements/1.1/"
   xmlns:cc="http://creativecommons.org/ns#"
   xmlns:rdf="http://www.w3.org/1999/02/22-rdf-syntax-ns#"
   xmlns:svg="http://www.w3.org/2000/svg"
   xmlns="http://www.w3.org/2000/svg"
   xmlns:xlink="http://www.w3.org/1999/xlink"
   xmlns:sodipodi="http://sodipodi.sourceforge.net/DTD/sodipodi-0.dtd"
   xmlns:inkscape="http://www.inkscape.org/namespaces/inkscape"
   width="128"
   height="128"
   id="svg2"
   sodipodi:version="0.32"
   inkscape:version="0.48.0 r9654"
   sodipodi:docname="basic_guy.svg"
   inkscape:output_extension="org.inkscape.output.svg.inkscape"
   version="1.0"
   inkscape:export-filename="/home/nicu/Desktop/pacman/pacman.png"
   inkscape:export-xdpi="90"
   inkscape:export-ydpi="90">
  <defs
     id="defs4">
    <inkscape:perspective
       sodipodi:type="inkscape:persp3d"
       inkscape:vp_x="-50 : 600 : 1"
       inkscape:vp_y="0 : 1000 : 0"
       inkscape:vp_z="700 : 600 : 1"
       inkscape:persp3d-origin="300 : 400 : 1"
       id="perspective2543" />
    <linearGradient
       id="linearGradient4072">
      <stop
         style="stop-color:#000000;stop-opacity:1;"
         offset="0"
         id="stop4074" />
      <stop
         style="stop-color:#000000;stop-opacity:0;"
         offset="1"
         id="stop4076" />
    </linearGradient>
    <linearGradient
       id="linearGradient2315">
      <stop
         style="stop-color:#000000;stop-opacity:0;"
         offset="0"
         id="stop2317" />
      <stop
         style="stop-color:#000000;stop-opacity:0.57195574;"
         offset="1"
         id="stop2319" />
    </linearGradient>
    <radialGradient
       inkscape:collect="always"
       xlink:href="#linearGradient2315"
       id="radialGradient2342"
       cx="216.99271"
       cy="497.9592"
       fx="216.99271"
       fy="497.9592"
       r="65"
       gradientUnits="userSpaceOnUse"
       gradientTransform="matrix(0.7158046,1.4128374,-1.3538472,0.6859177,735.83621,-155.77224)" />
    <radialGradient
       inkscape:collect="always"
       xlink:href="#linearGradient2315"
       id="radialGradient2365"
       gradientUnits="userSpaceOnUse"
       gradientTransform="matrix(0.387095,1.5161279,-1.4234088,0.3634221,726.51481,-93.106615)"
       cx="233.49998"
       cy="409.86218"
       fx="233.49998"
       fy="409.86218"
       r="15.5" />
    <radialGradient
       inkscape:collect="always"
       xlink:href="#linearGradient2315"
       id="radialGradient2367"
       gradientUnits="userSpaceOnUse"
       gradientTransform="matrix(0.387095,1.5161279,-1.4234088,0.3634221,726.51481,-93.106615)"
       cx="233.49998"
       cy="409.86218"
       fx="233.49998"
       fy="409.86218"
       r="15.5" />
    <filter
       inkscape:collect="always"
       id="filter3730"
       x="-0.34801543"
       width="1.6960309"
       y="-0.34084839"
       height="1.6816968">
      <feGaussianBlur
         inkscape:collect="always"
         stdDeviation="5.4650567"
         id="feGaussianBlur3732" />
    </filter>
    <filter
       inkscape:collect="always"
       id="filter4065"
       x="-0.51975077"
       width="2.0395014"
       y="-0.45338511"
       height="1.9067702">
      <feGaussianBlur
         inkscape:collect="always"
         stdDeviation="4.1511594"
         id="feGaussianBlur4067" />
    </filter>
    <radialGradient
       inkscape:collect="always"
       xlink:href="#linearGradient4072"
       id="radialGradient4078"
       cx="210.88904"
       cy="506.35242"
       fx="210.88904"
       fy="506.35242"
       r="68"
       gradientTransform="matrix(1.4028467,1.6438735e-6,-1.4520791e-7,0.2058824,-89.844917,403.11278)"
       gradientUnits="userSpaceOnUse" />
    <filter
       inkscape:collect="always"
       id="filter4112"
       x="-0.070020586"
       width="1.1400412"
       y="-0.34009999"
       height="1.6802">
      <feGaussianBlur
         inkscape:collect="always"
         stdDeviation="3.9678331"
         id="feGaussianBlur4114" />
    </filter>
    <linearGradient
       id="linearGradient7916">
      <stop
         style="stop-color:#ffffff;stop-opacity:1;"
         offset="0"
         id="stop7918" />
      <stop
         style="stop-color:#ffffff;stop-opacity:0.34020618;"
         offset="1.0000000"
         id="stop7920" />
    </linearGradient>
    <linearGradient
       inkscape:collect="always"
       xlink:href="#linearGradient7916"
       id="linearGradient3045"
       gradientUnits="userSpaceOnUse"
       gradientTransform="translate(278.59845,193.70353)"
       x1="16.874998"
       y1="22.851799"
       x2="27.900846"
       y2="34.976799" />
  </defs>
  <sodipodi:namedview
     id="base"
     pagecolor="#ffffff"
     bordercolor="#666666"
     borderopacity="1.0"
     gridtolerance="10000"
     guidetolerance="10"
     objecttolerance="10"
     inkscape:pageopacity="0.0"
     inkscape:pageshadow="2"
     inkscape:zoom="0.721875"
     inkscape:cx="68.294372"
     inkscape:cy="-80.097762"
     inkscape:document-units="px"
     inkscape:current-layer="layer1"
     showgrid="false"
     inkscape:window-width="937"
     inkscape:window-height="717"
     inkscape:window-x="674"
     inkscape:window-y="205"
     showguides="true"
     inkscape:guide-bbox="true"
     height="640px"
     width="128px"
     inkscape:window-maximized="0">
    <inkscape:grid
       type="xygrid"
       id="grid3194"
       originx="0px"
       originy="0px"
       spacingx="0px"
       spacingy="0px" />
  </sodipodi:namedview>
  <metadata
     id="metadata7">
    <rdf:RDF>
      <cc:Work
         rdf:about="">
        <dc:format>image/svg+xml</dc:format>
        <dc:type
           rdf:resource="http://purl.org/dc/dcmitype/StillImage" />
        <dc:title></dc:title>
        <dc:date />
        <dc:creator>
          <cc:Agent>
            <dc:title />
          </cc:Agent>
        </dc:creator>
        <dc:rights>
          <cc:Agent>
            <dc:title />
          </cc:Agent>
        </dc:rights>
        <dc:publisher>
          <cc:Agent>
            <dc:title />
          </cc:Agent>
        </dc:publisher>
        <dc:identifier />
        <dc:source />
        <dc:relation />
        <dc:language />
        <dc:subject>
          <rdf:Bag />
        </dc:subject>
        <dc:coverage />
        <dc:description />
        <dc:contributor>
          <cc:Agent>
            <dc:title />
          </cc:Agent>
        </dc:contributor>
        <cc:license
           rdf:resource="" />
      </cc:Work>
    </rdf:RDF>
  </metadata>
  <g
     inkscape:label="Layer 1"
     inkscape:groupmode="layer"
     id="layer1"
     transform="translate(-233.42021,-11.73452)">
    <g
       id="g2398"
       transform="matrix(0.53915651,0,0,0.53915651,166.47788,-145.18545)">
      <path
         id="path4069"
         d="m 274,507.36218 c 0,7.728 -30.464,14 -68,14 -37.536,0 -68,-6.272 -68,-14 0,-7.728 30.464,-14 68,-14 37.536,0 68,6.272 68,14 z"
         style="fill:url(#radialGradient4078);fill-opacity:1;stroke:none;filter:url(#filter4112)"
         transform="matrix(1.0588235,0,0,0.8571429,-9.117647,72.480312)"
         inkscape:connector-curvature="0" />
      <path
         sodipodi:nodetypes="cccsssccssc"
         id="path2327"
         d="m 305,531.36218 c 0,4.84287 -0.53051,37.56259 -1.53654,42.10417 -2.4742,12.45921 -10.48333,19.63252 -22.51062,22.36274 -5.59014,1.04284 -11.94871,-21.82388 -18.84956,-21.95132 -6.90086,-0.12744 -14.344,22.48441 -22.10328,22.48441 -7.79566,0 -15.2722,-22.62465 -22.2003,-22.51962 -6.92809,0.10504 -13.30773,22.93976 -18.90959,21.8585 -12.68377,-2.10494 -19.31565,-10.7812 -22.44296,-22.64457 C 175.49911,568.64103 175,536.05954 175,531.36218 c 0,-35.88 29.12,-65 65,-65 35.88,0 65,29.12 65,65 z"
         style="fill:#0000ff;fill-opacity:1;stroke:none"
         transform="translate(-31,-85)"
         inkscape:connector-curvature="0" />
      <path
         transform="translate(-31,-85)"
         style="fill:url(#radialGradient2342);fill-opacity:1;stroke:none"
         d="m 305,531.36218 c 0,4.84287 -0.53051,37.56259 -1.53654,42.10417 -2.4742,12.45921 -10.48333,19.63252 -22.51062,22.36274 -5.59014,1.04284 -11.94871,-21.82388 -18.84956,-21.95132 -6.90086,-0.12744 -14.344,22.48441 -22.10328,22.48441 -7.79566,0 -15.2722,-22.62465 -22.2003,-22.51962 -6.92809,0.10504 -13.30773,22.93976 -18.90959,21.8585 -12.68377,-2.10494 -19.31565,-10.7812 -22.44296,-22.64457 C 175.49911,568.64103 175,536.05954 175,531.36218 c 0,-35.88 29.12,-65 65,-65 35.88,0 65,29.12 65,65 z"
         id="path2340"
         sodipodi:nodetypes="cccsssccssc"
         inkscape:connector-curvature="0" />
      <g
         transform="translate(5,10)"
         id="g2352">
        <path
           sodipodi:type="arc"
           style="fill:#ffffff;fill-opacity:1;stroke:none"
           id="path2344"
           sodipodi:cx="239.5"
           sodipodi:cy="417.86218"
           sodipodi:rx="15.5"
           sodipodi:ry="15.5"
           d="m 255,417.86218 c 0,8.56042 -6.93959,15.5 -15.5,15.5 -8.56041,0 -15.5,-6.93958 -15.5,-15.5 0,-8.56041 6.93959,-15.5 15.5,-15.5 8.56041,0 15.5,6.93959 15.5,15.5 z"
           transform="translate(4,7)" />
        <path
           transform="translate(4,7)"
           d="m 255,417.86218 c 0,8.56042 -6.93959,15.5 -15.5,15.5 -8.56041,0 -15.5,-6.93958 -15.5,-15.5 0,-8.56041 6.93959,-15.5 15.5,-15.5 8.56041,0 15.5,6.93959 15.5,15.5 z"
           sodipodi:ry="15.5"
           sodipodi:rx="15.5"
           sodipodi:cy="417.86218"
           sodipodi:cx="239.5"
           id="path2346"
           style="fill:url(#radialGradient2367);fill-opacity:1;stroke:none"
           sodipodi:type="arc" />
        <path
           sodipodi:type="arc"
           style="fill:#000000;fill-opacity:1;stroke:none"
           id="path2350"
           sodipodi:cx="239.5"
           sodipodi:cy="417.86218"
           sodipodi:rx="15.5"
           sodipodi:ry="15.5"
           d="m 255,417.86218 c 0,8.56042 -6.93959,15.5 -15.5,15.5 -8.56041,0 -15.5,-6.93958 -15.5,-15.5 0,-8.56041 6.93959,-15.5 15.5,-15.5 8.56041,0 15.5,6.93959 15.5,15.5 z"
           transform="matrix(0.6129032,0,0,0.6129032,101.70968,169.7531)" />
      </g>
      <g
         transform="translate(-35,10)"
         id="g2357">
        <path
           transform="translate(4,7)"
           d="m 255,417.86218 c 0,8.56042 -6.93959,15.5 -15.5,15.5 -8.56041,0 -15.5,-6.93958 -15.5,-15.5 0,-8.56041 6.93959,-15.5 15.5,-15.5 8.56041,0 15.5,6.93959 15.5,15.5 z"
           sodipodi:ry="15.5"
           sodipodi:rx="15.5"
           sodipodi:cy="417.86218"
           sodipodi:cx="239.5"
           id="path2359"
           style="fill:#ffffff;fill-opacity:1;stroke:none"
           sodipodi:type="arc" />
        <path
           sodipodi:type="arc"
           style="fill:url(#radialGradient2365);fill-opacity:1;stroke:none"
           id="path2361"
           sodipodi:cx="239.5"
           sodipodi:cy="417.86218"
           sodipodi:rx="15.5"
           sodipodi:ry="15.5"
           d="m 255,417.86218 c 0,8.56042 -6.93959,15.5 -15.5,15.5 -8.56041,0 -15.5,-6.93958 -15.5,-15.5 0,-8.56041 6.93959,-15.5 15.5,-15.5 8.56041,0 15.5,6.93959 15.5,15.5 z"
           transform="translate(4,7)" />
        <path
           transform="matrix(0.6129032,0,0,0.6129032,101.70968,169.7531)"
           d="m 255,417.86218 c 0,8.56042 -6.93959,15.5 -15.5,15.5 -8.56041,0 -15.5,-6.93958 -15.5,-15.5 0,-8.56041 6.93959,-15.5 15.5,-15.5 8.56041,0 15.5,6.93959 15.5,15.5 z"
           sodipodi:ry="15.5"
           sodipodi:rx="15.5"
           sodipodi:cy="417.86218"
           sodipodi:cx="239.5"
           id="path2363"
           style="fill:#000000;fill-opacity:1;stroke:none"
           sodipodi:type="arc" />
      </g>
      <path
         id="path2371"
         d="m 180.00895,413.25201 c -10.02556,10.26977 -20.40625,16.41401 -23.17119,13.71483 -2.76493,-2.6992 3.12774,-13.22472 13.15329,-23.49449 10.02556,-10.26977 20.40625,-16.41401 23.17119,-13.71483 2.76493,2.6992 -3.12774,13.22472 -13.15329,23.49449 z"
         style="fill:#ffffff;fill-opacity:0.62745098;stroke:none;filter:url(#filter3730)"
         inkscape:connector-curvature="0" />
      <path
         id="path3734"
         d="m 262,501.86218 c 0,7.452 -2.464,13.5 -5.5,13.5 -3.036,0 -5.5,-6.048 -5.5,-13.5 0,-7.452 2.464,-13.5 5.5,-13.5 3.036,0 5.5,6.048 5.5,13.5 z"
         style="fill:#ffffff;fill-opacity:0.43438912;stroke:none;filter:url(#filter4065)"
         transform="matrix(0.7712592,0.6365212,-0.6365212,0.7712592,379.11791,-54.471338)"
         inkscape:connector-curvature="0" />
    </g>
    <g
       id="g3038"
       transform="matrix(2.5151513,0,0,2.5151513,-438.44195,-495.81487)">
      <path
         transform="matrix(1.550487,0,0,1.978714,266.11715,161.2125)"
         d="m 33.278212,34.94062 c 0,1.281408 -4.620126,2.320194 -10.31934,2.320194 -5.699214,0 -10.31934,-1.038786 -10.31934,-2.320194 0,-1.281407 4.620126,-2.320194 10.31934,-2.320194 5.699214,0 10.31934,1.038787 10.31934,2.320194 z"
         sodipodi:ry="2.320194"
         sodipodi:rx="10.31934"
         sodipodi:cy="34.94062"
         sodipodi:cx="22.958872"
         id="path1361"
         style="opacity:0.10824741;fill:#00ff00;fill-opacity:1;stroke:none"
         sodipodi:type="arc" />
      <g
         id="g3035">
        <path
           inkscape:connector-curvature="0"
           style="font-size:59.90107727px;font-style:normal;font-variant:normal;font-weight:bold;font-stretch:normal;text-align:start;line-height:125%;writing-mode:lr-tb;text-anchor:start;fill:#00ff00;fill-opacity:1;stroke:#3465a4;stroke-width:1.00000036px;stroke-linecap:butt;stroke-linejoin:miter;stroke-opacity:1;font-family:Bitstream Vera Sans"
           d="m 306.11281,231.24621 0,-9.02696 9.97846,-0.0402 0,-6.99533 -9.96954,0 -0.009,-9.96017 -7.01627,0.0112 0.005,9.93116 -9.98963,0.0737 -0.0357,6.96853 10.03427,-0.029 0.007,9.04036 6.99619,0.0268 z"
           id="text1314"
           sodipodi:nodetypes="ccccccccccccc" />
      </g>
      <path
         sodipodi:nodetypes="ccccccccccccc"
         id="path7076"
         d="m 305.09715,230.23745 0,-9.03419 10.0026,0 -0.007,-5.02443 -9.98697,0 0,-9.99497 -4.99484,0.0179 0.009,9.97712 -10.02619,0.0179 -0.0268,4.97309 10.0644,0.009 -0.0134,9.02748 4.97895,0.0312 z"
         style="font-size:59.90107727px;font-style:normal;font-variant:normal;font-weight:bold;font-stretch:normal;text-align:start;line-height:125%;writing-mode:lr-tb;text-anchor:start;opacity:0.40860219;fill:#00ff00;fill-opacity:1;stroke:url(#linearGradient3045);stroke-width:1.0000006px;stroke-linecap:butt;stroke-linejoin:miter;stroke-opacity:1;font-family:Bitstream Vera Sans"
         inkscape:connector-curvature="0" />
      <path
         sodipodi:nodetypes="ccccccccc"
         id="path7914"
         d="m 289.59845,218.70353 c 0,1.9375 25.98437,-0.96875 25.98437,-0.0312 l 0,-3 -9.98437,0.0312 0,-9.96523 -6,0 0,9.96523 -10,0 0,3 z"
         style="opacity:0.31182796;fill:#00ff00;fill-opacity:1;fill-rule:evenodd;stroke:none"
         inkscape:connector-curvature="0" />
    </g>
  </g>
</svg>
