<?xml version="1.0" encoding="UTF-8" standalone="no"?>
<!-- Created with Inkscape (http://www.inkscape.org/) -->
<svg
   xmlns:dc="http://purl.org/dc/elements/1.1/"
   xmlns:cc="http://creativecommons.org/ns#"
   xmlns:rdf="http://www.w3.org/1999/02/22-rdf-syntax-ns#"
   xmlns:svg="http://www.w3.org/2000/svg"
   xmlns="http://www.w3.org/2000/svg"
   xmlns:sodipodi="http://sodipodi.sourceforge.net/DTD/sodipodi-0.dtd"
   xmlns:inkscape="http://www.inkscape.org/namespaces/inkscape"
   width="744.09448819"
   height="1052.3622047"
   id="svg2"
   sodipodi:version="0.32"
   inkscape:version="0.46"
   sodipodi:docname="Left_Square_Bracket.svg"
   inkscape:output_extension="org.inkscape.output.svg.inkscape">
  <defs
     id="defs4">
    <inkscape:perspective
       sodipodi:type="inkscape:persp3d"
       inkscape:vp_x="0 : 526.18109 : 1"
       inkscape:vp_y="0 : 1000 : 0"
       inkscape:vp_z="744.09448 : 526.18109 : 1"
       inkscape:persp3d-origin="372.04724 : 350.78739 : 1"
       id="perspective10" />
  </defs>
  <sodipodi:namedview
     id="base"
     pagecolor="#ffffff"
     bordercolor="#666666"
     borderopacity="1.0"
     gridtolerance="10000"
     guidetolerance="10"
     objecttolerance="10"
     inkscape:pageopacity="0.0"
     inkscape:pageshadow="2"
     inkscape:zoom="0.49497475"
     inkscape:cx="393.917"
     inkscape:cy="483.21876"
     inkscape:document-units="px"
     inkscape:current-layer="layer1"
     showgrid="false"
     inkscape:window-width="675"
     inkscape:window-height="722"
     inkscape:window-x="691"
     inkscape:window-y="107" />
  <metadata
     id="metadata7">
    <rdf:RDF>
      <cc:Work
         rdf:about="">
        <dc:format>image/svg+xml</dc:format>
        <dc:type
           rdf:resource="http://purl.org/dc/dcmitype/StillImage" />
      </cc:Work>
    </rdf:RDF>
  </metadata>
  <g
     inkscape:label="Layer 1"
     inkscape:groupmode="layer"
     id="layer1">
    <path
       style="font-size:1000px;font-style:normal;font-variant:normal;font-weight:normal;font-stretch:normal;fill:#000000;fill-opacity:1;stroke:none;stroke-width:1px;stroke-linecap:butt;stroke-linejoin:miter;stroke-opacity:1;font-family:OCRA;-inkscape-font-specification:OCRA"
       d="M 146,313.36218 L 539,313.36218 C 559.66611,317.36292 572.33276,329.36291 577,349.36218 C 577.66609,352.69622 577.99942,356.36288 578,360.36218 C 577.99942,381.02952 568.6661,395.69617 550,404.36218 C 546.66612,405.69616 542.99946,406.69616 539,407.36218 C 536.3328,408.02949 502.9995,408.36283 439,408.36218 L 343,408.36218 L 343,682.36218 L 343,956.36218 L 439,956.36218 C 502.9995,956.36228 536.3328,956.69561 539,957.36218 C 559.66611,961.36227 572.33276,973.36226 577,993.36218 C 577.66609,996.69557 577.99942,1000.3622 578,1004.3622 C 577.99942,1025.0289 568.6661,1039.6955 550,1048.3622 C 546.66612,1049.6955 542.99946,1050.6955 539,1051.3622 L 146,1051.3622 C 136.66653,1049.3622 128.3332,1045.0289 121,1038.3622 C 113.66655,1031.0289 108.99989,1022.3622 107,1012.3622 L 107,352.36218 C 108.99989,343.02956 113.66655,334.69623 121,327.36218 C 128.3332,320.02958 136.66653,315.36292 146,313.36218 M 248,682.36218 L 248,408.36218 L 225,408.36218 L 202,408.36218 L 202,682.36218 L 202,956.36218 L 225,956.36218 L 248,956.36218 L 248,682.36218"
       id="text8059" />
  </g>
</svg>
