<?xml version="1.0" encoding="UTF-8" standalone="no"?>
<!-- Created with Inkscape (http://www.inkscape.org/) -->

<svg
   xmlns:dc="http://purl.org/dc/elements/1.1/"
   xmlns:cc="http://creativecommons.org/ns#"
   xmlns:rdf="http://www.w3.org/1999/02/22-rdf-syntax-ns#"
   xmlns:svg="http://www.w3.org/2000/svg"
   xmlns="http://www.w3.org/2000/svg"
   xmlns:sodipodi="http://sodipodi.sourceforge.net/DTD/sodipodi-0.dtd"
   xmlns:inkscape="http://www.inkscape.org/namespaces/inkscape"
   width="64"
   height="64"
   id="svg2"
   sodipodi:version="0.32"
   inkscape:version="0.48.0 r9654"
   sodipodi:docname="leftbracket.svg"
   inkscape:output_extension="org.inkscape.output.svg.inkscape"
   version="1.1">
  <defs
     id="defs4">
    <inkscape:perspective
       sodipodi:type="inkscape:persp3d"
       inkscape:vp_x="0 : 526.18109 : 1"
       inkscape:vp_y="0 : 1000 : 0"
       inkscape:vp_z="744.09448 : 526.18109 : 1"
       inkscape:persp3d-origin="372.04724 : 350.78739 : 1"
       id="perspective10" />
  </defs>
  <sodipodi:namedview
     id="base"
     pagecolor="#ffffff"
     bordercolor="#666666"
     borderopacity="1.0"
     gridtolerance="10000"
     guidetolerance="10"
     objecttolerance="10"
     inkscape:pageopacity="0.0"
     inkscape:pageshadow="2"
     inkscape:zoom="1.979899"
     inkscape:cx="143.7812"
     inkscape:cy="76.228702"
     inkscape:document-units="px"
     inkscape:current-layer="layer1"
     showgrid="false"
     inkscape:window-width="863"
     inkscape:window-height="722"
     inkscape:window-x="691"
     inkscape:window-y="107"
     inkscape:window-maximized="0" />
  <metadata
     id="metadata7">
    <rdf:RDF>
      <cc:Work
         rdf:about="">
        <dc:format>image/svg+xml</dc:format>
        <dc:type
           rdf:resource="http://purl.org/dc/dcmitype/StillImage" />
      </cc:Work>
    </rdf:RDF>
  </metadata>
  <g
     inkscape:label="Layer 1"
     inkscape:groupmode="layer"
     id="layer1"
     transform="translate(0,-988.36218)">
    <path
       style="font-size:1000px;font-style:normal;font-variant:normal;font-weight:normal;font-stretch:normal;fill:#000000;fill-opacity:1;stroke:none;font-family:OCRA;-inkscape-font-specification:OCRA"
       d="m 11.28297,994.70999 43.210559,0 c 2.27225,0.28521 3.664956,1.14068 4.178117,2.56641 0.07324,0.23769 0.10989,0.49908 0.109955,0.78419 -6.5e-5,1.47336 -1.026268,2.51891 -3.078615,3.13671 -0.366563,0.095 -0.769715,0.1664 -1.209457,0.2139 -0.293263,0.048 -3.958273,0.071 -10.995052,0.071 l -10.555256,0 0,19.5333 0,19.5332 10.555256,0 c 7.036779,0 10.701789,0.023 10.995052,0.071 2.27225,0.2852 3.664956,1.1406 4.178117,2.5665 0.07324,0.2375 0.10989,0.499 0.109955,0.7841 -6.5e-5,1.4733 -1.026268,2.5189 -3.078615,3.1367 -0.366563,0.095 -0.769715,0.1664 -1.209457,0.2139 l -43.210559,0 c -1.026219,-0.1426 -1.9424728,-0.4515 -2.7487614,-0.9268 -0.806321,-0.5227 -1.3194226,-1.1406 -1.53931,-1.8535 l 0,-47.05095 c 0.2198874,-0.66531 0.732989,-1.25939 1.53931,-1.78223 0.8062886,-0.52274 1.7225424,-0.85542 2.7487614,-0.99805 m 11.214951,26.30573 0,-19.5332 -2.528858,0 -2.528863,0 0,19.5332 0,19.5333 2.528863,0 2.528858,0 0,-19.5333"
       id="text8059"
       inkscape:connector-curvature="0" />
  </g>
</svg>
