<?xml version="1.0" encoding="UTF-8" standalone="no"?>
<!-- Created with Inkscape (http://www.inkscape.org/) -->

<svg
   xmlns:dc="http://purl.org/dc/elements/1.1/"
   xmlns:cc="http://creativecommons.org/ns#"
   xmlns:rdf="http://www.w3.org/1999/02/22-rdf-syntax-ns#"
   xmlns:svg="http://www.w3.org/2000/svg"
   xmlns="http://www.w3.org/2000/svg"
   xmlns:sodipodi="http://sodipodi.sourceforge.net/DTD/sodipodi-0.dtd"
   xmlns:inkscape="http://www.inkscape.org/namespaces/inkscape"
   width="64"
   height="64"
   id="svg2"
   sodipodi:version="0.32"
   inkscape:version="0.48.0 r9654"
   sodipodi:docname="lessthan.svg"
   inkscape:output_extension="org.inkscape.output.svg.inkscape"
   version="1.1">
  <defs
     id="defs4">
    <inkscape:perspective
       sodipodi:type="inkscape:persp3d"
       inkscape:vp_x="0 : 526.18109 : 1"
       inkscape:vp_y="0 : 1000 : 0"
       inkscape:vp_z="744.09448 : 526.18109 : 1"
       inkscape:persp3d-origin="372.04724 : 350.78739 : 1"
       id="perspective10" />
  </defs>
  <sodipodi:namedview
     id="base"
     pagecolor="#ffffff"
     bordercolor="#666666"
     borderopacity="1.0"
     gridtolerance="10000"
     guidetolerance="10"
     objecttolerance="10"
     inkscape:pageopacity="0.0"
     inkscape:pageshadow="2"
     inkscape:zoom="0.9899495"
     inkscape:cx="316.97329"
     inkscape:cy="125.0998"
     inkscape:document-units="px"
     inkscape:current-layer="layer1"
     showgrid="false"
     inkscape:window-width="1440"
     inkscape:window-height="861"
     inkscape:window-x="0"
     inkscape:window-y="0"
     inkscape:window-maximized="0" />
  <metadata
     id="metadata7">
    <rdf:RDF>
      <cc:Work
         rdf:about="">
        <dc:format>image/svg+xml</dc:format>
        <dc:type
           rdf:resource="http://purl.org/dc/dcmitype/StillImage" />
      </cc:Work>
    </rdf:RDF>
  </metadata>
  <g
     inkscape:label="Layer 1"
     inkscape:groupmode="layer"
     id="layer1"
     transform="translate(0,-988.36218)">
    <path
       style="font-size:1000px;font-style:normal;font-variant:normal;font-weight:normal;font-stretch:normal;fill:#000000;fill-opacity:1;stroke:none;font-family:OCRA;-inkscape-font-specification:OCRA"
       d="m 48.44164,999.53093 c 0.185538,-0.0514 0.494846,-0.0772 0.927928,-0.0772 l 1.577482,0.2317 c 0.123671,0.0515 0.247395,0.10302 0.37117,0.15446 0.371122,0.15451 0.742291,0.38624 1.113517,0.69504 0.371119,0.309 0.649497,0.6179 0.835137,0.9268 0.309254,0.5149 0.463911,1.0813 0.463964,1.6991 -5.3e-5,1.2357 -0.587741,2.214 -1.763068,2.9348 -0.247499,0.1545 -5.629483,2.8061 -16.145973,7.9548 -10.454697,5.0972 -15.71296,7.6716 -15.774803,7.723 -1.9e-5,10e-5 5.258244,2.5744 15.774803,7.7231 10.51649,5.1488 15.898474,7.8004 16.145973,7.9548 1.175327,0.7209 1.763015,1.6991 1.763068,2.9348 l -0.278381,1.3902 -0.185583,0.3089 c -0.18564,0.3089 -0.464018,0.6178 -0.835137,0.9267 -0.371226,0.309 -0.742395,0.5407 -1.113517,0.6951 -0.680531,0.2575 -1.391944,0.3862 -2.134238,0.3862 -0.680531,0 -1.330078,-0.1287 -1.948652,-0.3862 l -35.261322,-17.2997 c -0.556768,-0.3089 -1.020735,-0.6951 -1.391893,-1.1585 -0.24746,-0.3603 -0.433046,-0.7722 -0.556759,-1.2357 l 0,-4.4021 c 0.123713,-0.4634 0.309299,-0.8753 0.556759,-1.2357 0.371158,-0.5149 0.835125,-0.9268 1.391893,-1.2357 L 47.23533,999.91709 c 0.371125,-0.2059 0.773227,-0.33462 1.20631,-0.38616"
       id="text7927"
       inkscape:connector-curvature="0" />
  </g>
</svg>
