<?xml version="1.0" encoding="UTF-8" standalone="no"?>
<!-- Created with Inkscape (http://www.inkscape.org/) -->
<svg
   xmlns:dc="http://purl.org/dc/elements/1.1/"
   xmlns:cc="http://creativecommons.org/ns#"
   xmlns:rdf="http://www.w3.org/1999/02/22-rdf-syntax-ns#"
   xmlns:svg="http://www.w3.org/2000/svg"
   xmlns="http://www.w3.org/2000/svg"
   xmlns:sodipodi="http://sodipodi.sourceforge.net/DTD/sodipodi-0.dtd"
   xmlns:inkscape="http://www.inkscape.org/namespaces/inkscape"
   width="744.09448819"
   height="1052.3622047"
   id="svg2"
   sodipodi:version="0.32"
   inkscape:version="0.46"
   sodipodi:docname="Right_Square_Bracket.svg"
   inkscape:output_extension="org.inkscape.output.svg.inkscape">
  <defs
     id="defs4">
    <inkscape:perspective
       sodipodi:type="inkscape:persp3d"
       inkscape:vp_x="0 : 526.18109 : 1"
       inkscape:vp_y="0 : 1000 : 0"
       inkscape:vp_z="744.09448 : 526.18109 : 1"
       inkscape:persp3d-origin="372.04724 : 350.78739 : 1"
       id="perspective10" />
  </defs>
  <sodipodi:namedview
     id="base"
     pagecolor="#ffffff"
     bordercolor="#666666"
     borderopacity="1.0"
     gridtolerance="10000"
     guidetolerance="10"
     objecttolerance="10"
     inkscape:pageopacity="0.0"
     inkscape:pageshadow="2"
     inkscape:zoom="0.49497475"
     inkscape:cx="393.917"
     inkscape:cy="483.21876"
     inkscape:document-units="px"
     inkscape:current-layer="layer1"
     showgrid="false"
     inkscape:window-width="675"
     inkscape:window-height="722"
     inkscape:window-x="691"
     inkscape:window-y="107" />
  <metadata
     id="metadata7">
    <rdf:RDF>
      <cc:Work
         rdf:about="">
        <dc:format>image/svg+xml</dc:format>
        <dc:type
           rdf:resource="http://purl.org/dc/dcmitype/StillImage" />
      </cc:Work>
    </rdf:RDF>
  </metadata>
  <g
     inkscape:label="Layer 1"
     inkscape:groupmode="layer"
     id="layer1">
    <path
       style="font-size:1000px;font-style:normal;font-variant:normal;font-weight:normal;font-stretch:normal;fill:#000000;fill-opacity:1;stroke:none;stroke-width:1px;stroke-linecap:butt;stroke-linejoin:miter;stroke-opacity:1;font-family:OCRA;-inkscape-font-specification:OCRA"
       d="M 147,313.36218 L 345,312.36218 C 474.33286,313.02959 540.33279,313.69625 543,314.36218 C 550.33278,316.36292 556.33278,319.36292 561,323.36218 C 568.99943,330.02957 574.66609,338.3629 578,348.36218 C 578.66609,351.02955 578.99942,462.36277 579,682.36218 C 578.99942,902.36233 578.66609,1013.6956 578,1016.3622 C 575.99942,1023.0289 572.66609,1029.0289 568,1034.3622 C 561.33277,1042.3622 552.99945,1048.0289 543,1051.3622 C 540.33279,1052.0288 473.66619,1052.3622 343,1052.3622 L 147,1052.3622 L 142,1050.3622 C 119.99988,1041.6955 108.33322,1026.3622 107,1004.3622 C 106.99989,981.69559 118.66655,966.36227 142,958.36218 L 146,957.36218 L 244,956.36218 L 342,956.36218 L 342,682.36218 L 342,408.36218 L 244,408.36218 L 146,408.36218 L 142,406.36218 C 127.33321,402.36283 116.99988,393.69617 111,380.36218 C 106.99989,372.36286 105.66656,363.6962 107,354.36218 C 107.66656,349.69622 108.99989,345.02956 111,340.36218 C 117.66655,325.02958 129.66654,316.02959 147,313.36218 M 483,682.36218 L 483,408.36218 L 460,408.36218 L 437,408.36218 L 437,682.36218 L 437,956.36218 L 460,956.36218 L 483,956.36218 L 483,682.36218"
       id="text8109" />
  </g>
</svg>
