<?xml version="1.0" encoding="UTF-8" standalone="no"?>
<!-- Created with Inkscape (http://www.inkscape.org/) -->

<svg
   xmlns:dc="http://purl.org/dc/elements/1.1/"
   xmlns:cc="http://creativecommons.org/ns#"
   xmlns:rdf="http://www.w3.org/1999/02/22-rdf-syntax-ns#"
   xmlns:svg="http://www.w3.org/2000/svg"
   xmlns="http://www.w3.org/2000/svg"
   xmlns:sodipodi="http://sodipodi.sourceforge.net/DTD/sodipodi-0.dtd"
   xmlns:inkscape="http://www.inkscape.org/namespaces/inkscape"
   width="64px"
   height="64px"
   id="svg3184"
   version="1.1"
   inkscape:version="0.48.0 r9654"
   sodipodi:docname="robot.svg">
  <defs
     id="defs3186" />
  <sodipodi:namedview
     id="base"
     pagecolor="#ffffff"
     bordercolor="#666666"
     borderopacity="1.0"
     inkscape:pageopacity="0.0"
     inkscape:pageshadow="2"
     inkscape:zoom="5.5"
     inkscape:cx="32"
     inkscape:cy="32"
     inkscape:current-layer="layer1"
     showgrid="true"
     inkscape:document-units="px"
     inkscape:grid-bbox="true"
     inkscape:window-width="1440"
     inkscape:window-height="861"
     inkscape:window-x="0"
     inkscape:window-y="0"
     inkscape:window-maximized="0" />
  <metadata
     id="metadata3189">
    <rdf:RDF>
      <cc:Work
         rdf:about="">
        <dc:format>image/svg+xml</dc:format>
        <dc:type
           rdf:resource="http://purl.org/dc/dcmitype/StillImage" />
      </cc:Work>
    </rdf:RDF>
  </metadata>
  <g
     id="layer1"
     inkscape:label="Layer 1"
     inkscape:groupmode="layer">
    <path
       style="fill:none;stroke:#000000;stroke-width:1px;stroke-linecap:butt;stroke-linejoin:miter;stroke-opacity:1"
       d="m 7.8181818,14.363636 c -0.060606,0.363637 -0.1212121,0.727273 -0.1818182,1.090909 0,0.242425 0.030069,0.486721 0,0.727273 -0.030994,0.247956 -0.146479,0.479899 -0.1818181,0.727273 -0.059997,0.419978 0.059997,0.852749 0,1.272727 -0.054208,0.379454 -0.3094287,0.711455 -0.3636364,1.090909 -0.034284,0.239988 0.034284,0.487285 0,0.727273 -0.027104,0.189727 -0.129167,0.361175 -0.1818182,0.545455 -0.068649,0.24027 -0.1212121,0.484848 -0.1818182,0.727272 C 6.6666667,21.515152 6.6060606,21.757576 6.5454545,22 c -0.060606,0.242424 -0.146479,0.479899 -0.1818181,0.727273 -0.025713,0.179991 0.025713,0.365463 0,0.545454 C 6.3282973,23.520101 6.2171573,23.752626 6.1818182,24 c -0.025713,0.179991 0,0.363636 0,0.545455 0,0.181818 0,0.363636 0,0.545454 0,0.194359 -0.039379,1.075831 0,1.272727 -0.041724,0.365117 0.2844791,0.592462 0.3636363,0.909091 0.029398,0.117593 -0.023772,0.244778 0,0.363637 -0.041723,0.365116 0.2844792,0.592462 0.3636364,0.909091 0.029398,0.117593 -0.029398,0.246043 0,0.363636 0.032868,0.131473 0.1552407,0.230749 0.1818182,0.363636 0.035658,0.178288 -0.035658,0.367167 0,0.545455 0.026578,0.132887 0.1314876,0.23781 0.1818182,0.363636 0.071178,0.177946 0.1106399,0.367509 0.1818182,0.545455 0.1006611,0.251653 0.2424242,0.484848 0.3636363,0.727272 C 7.8787879,31.575758 7.9393939,31.69697 8,31.818182 c 0.060606,0.121212 0.1489499,0.232163 0.1818182,0.363636 0.029398,0.117593 -0.054208,0.255221 0,0.363637 0.076661,0.153322 0.2754416,0.216645 0.3636363,0.363636 0.098605,0.164341 0.1212122,0.363636 0.1818182,0.545454 0.1212121,0.363637 0.2424243,0.727273 0.3636364,1.09091 0.060606,0.181818 0.11064,0.367509 0.1818182,0.545454 0.050331,0.125827 0.1552406,0.230749 0.1818182,0.363636 0,1.387025 -0.081312,-0.143428 0.1818181,0.909091 0.073496,0.293983 -0.059429,0.611946 0,0.909091 0.026578,0.132888 0.14895,0.232164 0.1818182,0.363637 0.029398,0.117593 0,0.242424 0,0.363636 0,0.30303 0,0.606061 0,0.909091 0,0.121212 0,0.242424 0,0.363636 0,0.06061 -0.027104,0.127611 0,0.181818 C 9.8565125,39.531207 10,39.550654 10,39.636364 10,39.771883 9.8685124,39.874174 9.8181818,40 c -0.071178,0.177946 -0.1503106,0.356409 -0.1818182,0.545455 -0.059781,0.358688 0.059782,0.73222 0,1.090909 -0.031508,0.189045 -0.1503106,0.356409 -0.1818181,0.545454 -0.029891,0.179345 0,0.363637 0,0.545455 0,0.242424 0,0.484848 0,0.727272 0,0.181819 0.029891,0.366111 0,0.545455 -0.031508,0.189046 -0.1503106,0.356409 -0.1818182,0.545455 -0.029891,0.179344 0,0.363636 0,0.545454 0,0.181818 0,0.363636 0,0.545455 0,0.181818 0,0.363636 0,0.545454 0,0.121212 -0.029398,0.246044 0,0.363637 0.032868,0.131473 0.1389632,0.235071 0.1818182,0.363636 0.03804,0.114119 0,0.580903 0,0.727273 0,0.319615 0.047414,0.806426 0,1.090909 -0.2393142,1.435885 -0.1818182,-0.327299 -0.1818182,1.090909 0,0.03153 0.01888,1.234966 0,1.272727 -0.038331,0.07666 -0.1434876,0.105157 -0.1818182,0.181818 -0.032876,0.06575 0,0.782629 0,0.909091"
       id="path3219"
       inkscape:connector-curvature="0" />
    <path
       style="fill:none;stroke:#000000;stroke-width:1px;stroke-linecap:butt;stroke-linejoin:miter;stroke-opacity:1"
       d="m 56.363636,16.909091 c -0.06061,0.242424 -0.140737,0.480787 -0.181818,0.727273 -0.03748,0.224884 0,0.845704 0,1.090909 0,0.787879 0,1.575757 0,2.363636 0,0.363636 0,0.727273 0,1.090909 0,0.30303 -0.03759,0.608401 0,0.909091 0.02377,0.190173 0.154715,0.355728 0.181818,0.545455 0.05939,0.415757 -0.05939,0.856969 0,1.272727 0.03534,0.247374 0.146479,0.479899 0.181819,0.727273 0.02571,0.17999 -0.02255,0.36504 0,0.545454 0.03833,0.306645 0.147691,0.60195 0.181818,0.909091 0.02677,0.240942 -0.02677,0.486331 0,0.727273 0.03413,0.307141 0.121212,0.60606 0.181818,0.909091 0.54837,2.741849 -0.149902,-0.674561 0.363636,1.636363 0.134077,0.603345 0.242425,1.212122 0.363637,1.818182 0.06061,0.30303 0.153839,0.601329 0.181818,0.909091 0.03292,0.362143 -0.0302,0.728529 0,1.090909 0.03061,0.367379 0.151203,0.72353 0.181818,1.090909 0.0302,0.362381 -0.03292,0.728766 0,1.090909 0.02798,0.307763 0.147691,0.60195 0.181818,0.909091 0.02677,0.240942 0,0.484849 0,0.727273 0,0.484848 0,0.969697 0,1.454545 0,1 0,0.454546 0,1.454546 0,0.30303 0.03015,0.607564 0,0.909091 C 58.151068,42.12568 58.03075,42.419775 58,42.727273 c -0.05427,0.542747 0.06023,1.094245 0,1.636363 -0.03413,0.307142 -0.143488,0.602446 -0.181818,0.909091 -0.0451,0.360829 0,0.727273 0,1.090909 0,0.727273 0,1.454546 0,2.181819 0,0.140424 0.03697,0.979983 0,1.090909 -0.04286,0.128565 -0.138963,0.235071 -0.181818,0.363636 -0.01917,0.0575 0,0.121212 0,0.181818 0,0.21046 0.04058,0.746767 0,0.909091 -0.03287,0.131473 -0.138964,0.235072 -0.181819,0.363636 -0.03956,0.118666 0,0.873526 0,1.09091"
       id="path3221"
       inkscape:connector-curvature="0" />
    <path
       style="fill:none;stroke:#000000;stroke-width:1px;stroke-linecap:butt;stroke-linejoin:miter;stroke-opacity:1"
       d="m 8.9090909,53.090909 c 0.060606,0.242424 0.089013,0.49526 0.1818182,0.727273 0.063664,0.159159 0.2685497,0.221006 0.3636364,0.363636 0.4525546,0.678832 -0.209513,0.106132 0.7272725,0.909091 0.230078,0.19721 0.512998,0.33118 0.727273,0.545455 1.988269,1.988269 -0.301954,0.230283 2.181818,2.181818 1.524366,1.197716 0.92611,0.590889 2.363636,1.636363 0.313845,0.228251 0.586199,0.512012 0.909091,0.727273 0.7439,0.495933 0.655059,0.278959 1.454546,0.545455 0.309625,0.103208 0.592462,0.284479 0.909091,0.363636 1.499832,0.374958 3.037856,0.143581 4.545454,0 0.666401,-0.06347 1.340484,-0.06712 2,-0.181818 0.0074,-0.0013 4.350189,-1.088108 4.363637,-1.090909 0.721806,-0.150377 1.460011,-0.21326 2.181818,-0.363637 C 32.55208,59.30165 33.262436,59.043193 34,58.909091 c 0.599259,-0.108956 1.212824,-0.114556 1.818182,-0.181818 0.407042,-0.04523 2.262516,-0.279135 2.727273,-0.363637 0.245854,-0.0447 0.480787,-0.140737 0.727272,-0.181818 0.179345,-0.02989 0.369065,0.0441 0.545455,0 0.844976,-0.211244 1.572377,-0.751798 2.363636,-1.090909 1.320366,-0.565871 1.422995,-0.517807 2.727273,-0.909091 0.355212,0.0077 0.599466,-0.260428 0.909091,-0.363636 0.0575,-0.01917 0.121212,0 0.181818,0 0.121212,0 0.242424,0 0.363636,0 0.121212,0 0.246044,0.0294 0.363637,0 0.131473,-0.03287 0.232163,-0.14895 0.363636,-0.181818 0.456328,-0.114082 0.270945,0.114082 0.727273,0 1.187017,-0.296755 -0.686941,-0.09763 0.909091,-0.363637 0.179344,-0.02989 0.365463,0.02571 0.545454,0 1.880411,-0.26863 -0.573072,-0.118143 1.636364,-0.363636 0.240941,-0.02677 0.484848,0 0.727273,0 0.242424,-0.06061 0.479899,-0.146479 0.727272,-0.181818 0.30588,-0.0437 0.768161,0 1.090909,0 0.121213,0 0.248645,0.03833 0.363637,0 0.128565,-0.04285 0.230749,-0.155241 0.363636,-0.181818 0.237717,-0.04754 0.484849,0 0.727273,0 0.06061,0 0.121212,0 0.181818,0 0.06061,0 0.138963,0.04286 0.181818,0 0.04285,-0.04285 -0.04286,-0.138964 0,-0.181819 0.0151,-0.0151 0.626455,0.0168 0.727273,0 0.246485,-0.04108 0.487002,-0.113169 0.727273,-0.181818 C 57.497794,53.961669 57.011457,54 57.636364,54 c 0.06061,0 0.121212,0 0.181818,0 C 57.878788,54 58,53.939394 58,54 c 0,0.06061 -0.121212,0 -0.181818,0 -0.06061,0 -0.121212,0 -0.181818,0"
       id="path3225"
       inkscape:connector-curvature="0" />
    <path
       style="fill:none;stroke:#000000;stroke-width:1px;stroke-linecap:butt;stroke-linejoin:miter;stroke-opacity:1"
       d="M 32.181818,34.181818 C 31.957461,33.62575 32,33.121239 32,32.545455 c 0,-0.242425 -0.02412,-0.486052 0,-0.727273 0.03668,-0.366823 0.151203,-0.72353 0.181818,-1.090909 0.0302,-0.362381 0,-0.727273 0,-1.090909 0,-0.363637 0,-0.727273 0,-1.090909 0,-2.164373 -0.05943,0.353044 0.181818,-1.818182 0.02761,-0.248471 -0.02761,-1.387893 0,-1.636364 0.05519,-0.496714 0.301648,-0.958634 0.363637,-1.454545 0.06014,-0.481105 -0.06014,-0.973441 0,-1.454546 0.03099,-0.247955 0.150823,-0.479317 0.181818,-0.727273 0.03007,-0.240552 0,-0.484848 0,-0.727272 0,-0.484849 0,-0.969697 0,-1.454546 0,-0.424242 0,-0.848485 0,-1.272727 0,-0.242424 0.03428,-0.487285 0,-0.727273 -0.0271,-0.189727 -0.150311,-0.356409 -0.181818,-0.545454 -0.05978,-0.358689 0.07132,-0.734335 0,-1.090909 -0.02658,-0.132888 -0.121212,-0.242425 -0.181818,-0.363637 C 32.363636,14.909091 32.181818,14.545455 32,14.181818 c -0.06061,-0.121212 -0.121212,-0.242424 -0.181818,-0.363636 -0.06061,-0.121212 -0.14895,-0.232164 -0.181818,-0.363637 -0.0294,-0.117593 0.0294,-0.246043 0,-0.363636 -0.03287,-0.131473 -0.14895,-0.232163 -0.181819,-0.363636 -0.0294,-0.117593 0.0294,-0.246044 0,-0.363637 C 31.421677,12.232163 31.305596,12.131473 31.272727,12 c -0.0294,-0.117593 0,-0.242424 0,-0.363636 0,-0.121212 0,-0.242425 0,-0.363637 0,-0.30303 -0.05943,-0.611945 0,-0.909091 0.02658,-0.132887 0.14895,-0.232163 0.181818,-0.363636 0.0294,-0.117593 0,-0.2424242 0,-0.3636364 0,-0.3030303 0,-0.6060606 0,-0.9090909 0,-0.060606 -0.0271,-0.1276104 0,-0.1818182 0.03833,-0.076661 0.154715,-0.1005066 0.181819,-0.1818181 0.0575,-0.1724879 0,-0.3636364 0,-0.5454546 0,-0.3030303 0,-0.6060606 0,-0.9090909 0,-0.076484 -0.02704,-1.0368227 0,-1.0909091 0.03833,-0.076661 0.09611,-0.1818182 0.181818,-0.1818182 0.220422,0 -0.04526,0.227075 -0.181818,0.3636364"
       id="path3227"
       inkscape:connector-curvature="0" />
    <path
       style="fill:none;stroke:#000000;stroke-width:1px;stroke-linecap:butt;stroke-linejoin:miter;stroke-opacity:1"
       d="m 23.090909,20.545455 c 0.121212,-0.242425 0.224188,-0.49486 0.363636,-0.727273 0.0441,-0.0735 0.134275,-0.110503 0.181819,-0.181818 0.07517,-0.112759 0.106645,-0.250878 0.181818,-0.363637 0.04754,-0.07131 0.134275,-0.110503 0.181818,-0.181818 0.07517,-0.112759 0.112094,-0.247429 0.181818,-0.363636 0.185131,-0.308552 0.713168,-1.048816 0.909091,-1.272728 0.451523,-0.516026 0.969697,-0.969697 1.454546,-1.454545 0.181818,-0.181818 0.363636,-0.363636 0.545454,-0.545455 0.121212,-0.121212 0.226501,-0.260784 0.363636,-0.363636 0.108416,-0.08131 0.255221,-0.100507 0.363637,-0.181818 0.339394,-0.254546 0.569697,-0.654546 0.909091,-0.909091 0.530948,-0.398211 0.250114,0.09076 0.727272,-0.545455 0.08131,-0.108415 0.100507,-0.25522 0.181819,-0.363636 0.154277,-0.205704 0.402824,-0.33151 0.545454,-0.545454 0.07517,-0.112759 0.121212,-0.242425 0.181818,-0.363637 0.121212,-0.242424 0.262976,-0.47562 0.363637,-0.727273 0.449346,-1.123365 -0.06276,-0.0563 0.363636,-0.90909 0.06061,-0.121213 0.14895,-0.232164 0.181818,-0.363637 0.03546,-0.141849 0,-0.8786957 0,-1.0909089 0,-0.081883 -0.02767,-0.4901211 0,-0.5454546 0.07666,-0.1533225 0.286975,-0.2103138 0.363637,-0.3636363 0.05421,-0.1084154 -0.05421,-0.255221 0,-0.3636364 0.03833,-0.076661 0.143487,-0.1051569 0.181818,-0.1818182 0.0271,-0.054208 -0.01917,-0.1243222 0,-0.1818181 C 31.861037,7.3259806 31.967132,7.2223821 32,7.0909091 c 0.0294,-0.117593 -0.03833,-0.2486445 0,-0.3636364 0.0271,-0.081311 0.143488,-0.1051569 0.181818,-0.1818182 0.0271,-0.054208 0,-0.1212121 0,-0.1818181 0,-0.060606 0,-0.1212122 0,-0.1818182 0,-0.1212121 0,-0.2424243 0,-0.3636364 0,-0.060606 -0.06061,-0.1818182 0,-0.1818182 0.06061,0 0,0.1212122 0,0.1818182 0.367445,0.3154544 0.08497,1.06716 0.181818,1.4545455 0.0613,0.2451912 0.458555,0.757016 0.545455,0.9090909 1.099441,1.9240228 -0.244896,-0.1243018 0.727273,1.0909091 C 33.772871,9.4433614 33.878788,9.6363636 34,9.8181818 34.181818,10 34.380844,10.166104 34.545455,10.363636 c 0.139892,0.167871 0.227129,0.374821 0.363636,0.545455 0.231513,0.289391 0.634289,0.634289 0.909091,0.909091 0.121212,0.121212 0.260784,0.2265 0.363636,0.363636 0.08131,0.108416 0.106646,0.250878 0.181818,0.363637 0.139861,0.20979 0.405595,0.335664 0.545455,0.545454 0.07517,0.112759 0.106646,0.250878 0.181818,0.363636 0.04754,0.07132 0.121212,0.121213 0.181818,0.181819 0.06061,0.06061 0.105157,0.143487 0.181818,0.181818 0.05421,0.0271 0.138964,-0.04285 0.181819,0 0.376188,0.376188 -0.574866,-0.01471 0.181818,0.363636 0.250792,0.125396 0.162631,-0.220192 0.363636,0.181818 0.0271,0.05421 -0.01917,0.124323 0,0.181819 0.219715,0.659143 0.08627,0.129399 0.363637,0.545454 0.07517,0.112759 0.100506,0.255221 0.181818,0.363636 0.154278,0.205704 0.402824,0.33151 0.545454,0.545455 0.07517,0.112759 0.106646,0.250878 0.181818,0.363636 0.04754,0.07132 0.154715,0.100507 0.181819,0.181819 0.03833,0.114991 -0.03833,0.248644 0,0.363636 0.05421,0.162623 0.286975,0.210314 0.363636,0.363636 0.0271,0.05421 -0.0271,0.127611 0,0.181818 0.07666,0.153323 0.286975,0.210314 0.363636,0.363637 0.0271,0.05421 -0.04286,0.138963 0,0.181818 0.04286,0.04285 0.138964,-0.04285 0.181819,0 0.03717,0.03717 -0.03604,0.473365 0,0.545455 0.07666,0.153322 0.268549,0.221006 0.363636,0.363636 0.07517,0.112759 0.106646,0.250877 0.181818,0.363636 0.04754,0.07132 0.143488,0.105157 0.181818,0.181818 0.0271,0.05421 0,0.121213 0,0.181819"
       id="path3229"
       inkscape:connector-curvature="0" />
    <path
       style="fill:none;stroke:#000000;stroke-width:1px;stroke-linecap:butt;stroke-linejoin:miter;stroke-opacity:1"
       d="m 8,14.363636 c 0.6186366,-0.161208 0.2690107,1.083476 0.3636364,1.272728 0.038331,0.07666 0.1434875,0.105157 0.1818181,0.181818 0.027104,0.05421 -0.033618,0.131391 0,0.181818 0.095087,0.14263 0.2565513,0.22978 0.3636364,0.363636 0.1365073,0.170634 0.2271291,0.374821 0.3636364,0.545455 0.1070851,0.133856 0.2565512,0.22978 0.3636363,0.363636 0.1365073,0.170634 0.2091207,0.390939 0.3636364,0.545455 0.335077,0.335076 0.550407,0.330244 0.909091,0.545454 0.181818,0.121212 0.363636,0.242425 0.545454,0.363637 0.06061,0.06061 0.110504,0.134275 0.181819,0.181818 0.112758,0.07517 0.250877,0.106646 0.363636,0.181818 0.07132,0.04754 0.110503,0.134275 0.181818,0.181818 0.112759,0.07517 0.250878,0.106646 0.363637,0.181818 0.07132,0.04754 0.110503,0.134275 0.181818,0.181819 0.225517,0.150345 0.510442,0.201013 0.727272,0.363636 0.137136,0.102852 0.226501,0.260784 0.363637,0.363636 0.216831,0.162623 0.501755,0.213292 0.727273,0.363637 0.07132,0.04754 0.110503,0.134275 0.181818,0.181818 0.112759,0.07517 0.255221,0.100507 0.363636,0.181818 0.205704,0.154278 0.33151,0.402825 0.545455,0.545455 0.112758,0.07517 0.242424,0.121212 0.363636,0.181818 0.121212,0.121212 0.226501,0.260784 0.363636,0.363636 0.216831,0.162623 0.501755,0.213291 0.727273,0.363637 0.07131,0.04754 0.121212,0.121212 0.181818,0.181818 0.181818,0.181818 0.363637,0.363636 0.545455,0.545454 0.06061,0.06061 0.105157,0.143488 0.181818,0.181818 0.05421,0.0271 0.12761,-0.0271 0.181818,0 0.07666,0.03833 0.110503,0.134275 0.181818,0.181819 0.112759,0.07517 0.250878,0.106645 0.363637,0.181818 0.07131,0.04754 0.121212,0.121212 0.181818,0.181818 0.121212,0.06061 0.250877,0.106646 0.363636,0.181818 0.07132,0.04754 0.110503,0.134275 0.181818,0.181818 0.112759,0.07517 0.26781,0.08599 0.363637,0.181819 0.09583,0.09583 0.106645,0.250877 0.181818,0.363636 0.17836,0.267541 0.548912,0.459732 0.727273,0.727273 0.150345,0.225517 0.224188,0.494859 0.363636,0.727272 0.112427,0.187378 0.25121,0.358077 0.363636,0.545455 0.259592,0.432653 0.403741,0.868312 0.727273,1.272727 0.107085,0.133857 0.260785,0.226501 0.363637,0.363637 0.08131,0.108415 0.121212,0.242424 0.181818,0.363636 0.121212,0.181818 0.227129,0.37482 0.363636,0.545454 -0.04658,0.280374 0.610376,0.428558 0.727273,0.545455 0.191653,0.191653 0.201013,0.510442 0.363636,0.727273 0.102852,0.137136 0.242424,0.242424 0.363637,0.363636 0.06061,0.06061 0.154714,0.100507 0.181818,0.181818 0.03833,0.114992 -0.03833,0.248645 0,0.363637 0.0271,0.08131 0.134275,0.110503 0.181818,0.181818 0.07517,0.112759 0.106646,0.250877 0.181818,0.363636 0.04754,0.07131 0.143488,0.105157 0.181818,0.181818 0.05421,0.108416 -0.08571,0.277927 0,0.363637 0.04285,0.04286 0.138963,-0.04285 0.181818,0 0.04285,0.04286 0.04285,0.138963 0,0.181818 -0.04285,0.04286 -0.138963,0.04286 -0.181818,0 -0.04285,-0.04285 -0.06061,-0.181818 0,-0.181818 0.08571,0 0.108323,0.137721 0.181818,0.181818 0.232414,0.139448 0.501755,0.213291 0.727273,0.363636 0.322892,0.215262 0.606061,0.484849 0.909091,0.727273 0.30303,0.242424 0.634685,0.452867 0.909091,0.727273 0.42855,0.428549 0.69649,0.99439 1.090909,1.454545 1.295692,1.295692 -0.103442,-0.174756 0.909091,1.090909 0.107085,0.133857 0.275442,0.216645 0.363636,0.363637 0.0986,0.164341 0.08321,0.381113 0.181819,0.545454 0.08819,0.146991 0.242424,0.242424 0.363636,0.363637 0.121212,0.121212 0.242424,0.242424 0.363636,0.363636 0.121212,0.121212 0.242425,0.242424 0.363637,0.363636 0.121212,0.121212 0.216645,0.275442 0.363636,0.363637 0.164341,0.0986 0.392132,0.06683 0.545455,0.181818 0.108415,0.08131 0.06906,0.288464 0.181818,0.363636 0.100854,0.06724 0.248644,-0.03833 0.363636,0 0.162623,0.05421 0.210314,0.286975 0.363636,0.363637 0.05421,0.0271 0.121213,0 0.181819,0 0.06061,0 0.121212,0 0.181818,0 0.348629,0 0.281491,0.08214 0.545454,-0.181819 0.06061,-0.06061 0.143488,-0.105157 0.181819,-0.181818 0.160929,-0.321858 -0.270444,-0.06213 0.181818,-0.363636 0.112759,-0.07517 0.247429,-0.112094 0.363636,-0.181818 0.187378,-0.112427 0.355728,-0.255221 0.545455,-0.363637 0.470654,-0.268945 0.98389,-0.458327 1.454545,-0.727272 0.379454,-0.216831 0.716153,-0.50242 1.090909,-0.727273 0.116207,-0.06972 0.255221,-0.100507 0.363637,-0.181818 0.137135,-0.102852 0.2265,-0.260785 0.363636,-0.363637 0.108415,-0.08131 0.242424,-0.121212 0.363636,-0.181818 0.121212,-0.06061 0.23781,-0.131487 0.363637,-0.181818 0.177945,-0.07118 0.374034,-0.09611 0.545454,-0.181818 0.390898,-0.195449 0.711455,-0.510442 1.090909,-0.727273 1.614763,-0.922721 -0.05619,0.15867 1.272728,-0.727273 0.181818,-0.121212 0.37482,-0.227129 0.545454,-0.363636 0.133856,-0.107085 0.242424,-0.242424 0.363636,-0.363636 0.303031,-0.303031 0.606061,-0.606061 0.909091,-0.909091 0.363637,-0.363637 0.727273,-0.727273 1.090909,-1.090909 0.121213,-0.121213 0.256552,-0.22978 0.363637,-0.363637 0.136507,-0.170634 0.227129,-0.37482 0.363636,-0.545454 0.556685,-0.695857 0.133453,-0.10009 0.727273,-0.545455 C 47.316364,30.785455 47.592727,30.305455 48,30 c 0.177161,-0.132871 0.434232,-0.141191 0.545455,-0.363636 0.07273,-0.145455 -0.07273,-0.4 0,-0.545455 0.07666,-0.153322 0.268549,-0.221006 0.363636,-0.363636 0.17664,-0.26496 0.113509,-0.378703 0.363636,-0.545455 0.112759,-0.07517 0.26781,-0.08599 0.363637,-0.181818 0.04286,-0.04285 -0.0271,-0.12761 0,-0.181818 0.07666,-0.153323 0.286975,-0.210314 0.363636,-0.363637 0.0271,-0.05421 0,-0.121212 0,-0.181818 0.06061,-0.121212 0.100507,-0.255221 0.181818,-0.363636 0.8064,-1.0752 -0.07913,0.347927 0.727273,-0.727273 0.162623,-0.216831 0.201013,-0.510442 0.363636,-0.727273 0.102852,-0.137135 0.260785,-0.2265 0.363637,-0.363636 0.08131,-0.108415 0.121212,-0.242424 0.181818,-0.363636 0.06061,-0.121212 0.131487,-0.23781 0.181818,-0.363637 0.07118,-0.177945 0.09611,-0.374034 0.181818,-0.545454 0.09772,-0.195449 0.25121,-0.358077 0.363637,-0.545455 0.06972,-0.116207 0.100506,-0.255221 0.181818,-0.363636 0.102852,-0.137136 0.260784,-0.226501 0.363636,-0.363636 0.08131,-0.108416 0.08599,-0.26781 0.181818,-0.363637 0.07303,-0.07303 -0.06087,0.363637 0,0.363637 0.08571,0 0.143488,-0.105157 0.181818,-0.181819 0.0271,-0.05421 -0.0271,-0.12761 0,-0.181818 0.03833,-0.07666 0.121213,-0.121212 0.181819,-0.181818 0,-0.121212 -0.0294,-0.246043 0,-0.363636 -0.109587,-0.32908 0.294534,-0.33815 0.363636,-0.545455 0.03833,-0.114992 -0.03833,-0.248644 0,-0.363636 0.189171,-0.567513 0.121212,0.06061 0.363636,-0.181818 0.04286,-0.04285 -0.04286,-0.138964 0,-0.181819 0.04286,-0.04285 0.138964,0.04285 0.181819,0 C 54.641281,20.26781 54.6521,20.112759 54.727273,20 c 0.09509,-0.14263 0.286975,-0.210314 0.363636,-0.363636 0.0271,-0.05421 -0.0271,-0.127611 0,-0.181819 0.08946,-0.178914 0.637816,-0.548358 0.727273,-0.727272 0.0271,-0.05421 -0.0271,-0.127611 0,-0.181818 C 55.856512,18.468793 55.961669,18.440298 56,18.363636 56.054208,18.255221 55.91429,18.08571 56,18 c 0.04286,-0.04285 0.138963,0.04285 0.181818,0 0.04286,-0.04285 0.04286,-0.138963 0,-0.181818 -0.04286,-0.04285 -0.121212,0 -0.181818,0"
       id="path3149"
       inkscape:connector-curvature="0" />
    <path
       style="fill:none;stroke:#000000;stroke-width:1px;stroke-linecap:butt;stroke-linejoin:miter;stroke-opacity:1"
       d="m 57.272727,52 c 0.121212,0.242424 0.606061,0.606061 0.363637,0.727273 C 57.393939,52.848485 57.081074,51.808347 57.272727,52 c 0.249885,0.249885 0.387414,0.593008 0.545455,0.909091 0.0235,0.04701 0,0.962036 0,1.090909 0,0.06061 0.04286,0.138963 0,0.181818 -0.04286,0.04286 -0.138963,-0.04286 -0.181818,0 -0.04286,0.04286 0.04286,0.138963 0,0.181818 -0.04286,0.04286 -0.138964,-0.04286 -0.181819,0 -0.04286,0.04286 -0.04286,0.138964 0,0.181819 0.04285,0.04286 0.121213,0 0.181819,0"
       id="path3151"
       inkscape:connector-curvature="0" />
    <path
       style="fill:#ff0000;stroke:#000000;stroke-width:1px;stroke-linecap:butt;stroke-linejoin:miter;stroke-opacity:1"
       d="m 9.2727273,52.363636 c 0.060606,0.242425 0.4242424,0.666667 0.1818182,0.727273 -0.2424243,0.06061 -0.1818182,-0.977158 -0.1818182,-0.727273 0.060606,0.303031 0.1212121,0.606061 0.1818182,0.909091 0.060606,0 0.1389632,-0.04286 0.1818181,0 0.090909,0.09091 -0.090909,0.454546 0,0.545455 0.042855,0.04286 0.1389633,-0.04286 0.1818182,0 0.042855,0.04286 -0.027104,0.12761 0,0.181818 C 10.042855,54.449346 10,54.10866 10,54"
       id="path3153"
       inkscape:connector-curvature="0" />
    <path
       style="fill:#ff0000"
       d="M 18.109091,60.219605 C 16.444126,59.647564 13.365605,57.433764 11.634477,55.563636 10.966076,54.841567 10.648821,54.318915 10.492988,53.683122 10.37429,53.198838 10.148517,52.606253 9.9912709,52.366264 9.8010711,52.075982 9.7479949,51.762109 9.8327109,51.428598 9.9027491,51.152869 9.9927815,49.004545 10.032783,46.654545 10.072784,44.304545 10.193458,41.85 10.300948,41.2 10.80174,38.171656 10.223509,35.011847 8.5301476,31.523261 8.2038584,30.851054 7.8084898,29.787418 7.6515507,29.159625 7.4946116,28.531831 7.269524,27.731818 7.151356,27.381818 6.8001954,26.341721 6.9026465,22.964932 7.336153,21.290909 7.8272138,19.394635 8.1022369,18.003146 8.1563533,17.141075 L 8.2,16.445786 8.9145184,17.385582 c 0.3929851,0.516888 0.9248032,1.071241 1.1818186,1.231896 2.395098,1.497129 6.605999,4.403798 7.285481,5.028969 0.25,0.230017 0.645875,0.51678 0.879723,0.637252 0.681845,0.351269 1.846932,1.477871 2.155661,2.084455 0.538706,1.05844 2.29854,3.632436 2.883251,4.217148 0.65446,0.654459 1.155161,1.528266 1.335256,2.330241 0.08482,0.377732 0.264373,0.572375 0.614313,0.665964 0.778083,0.208092 2.144356,1.399646 3.464303,3.021288 0.66712,0.819601 1.212948,1.563307 1.212948,1.652678 0,0.264663 2.517638,2.580891 2.805314,2.580891 0.145273,0 0.3147,0.08182 0.376504,0.181818 0.250974,0.406085 1.287358,0.190502 1.82962,-0.380591 0.293709,-0.309324 0.943107,-0.770696 1.443107,-1.025269 0.5,-0.254575 1.4,-0.790053 2,-1.189951 0.6,-0.399898 1.295777,-0.818071 1.546171,-0.929275 1.74442,-0.774718 3.614269,-2.150774 5.337382,-3.927881 1.018942,-1.050868 2.321071,-2.314911 2.893624,-2.808983 C 48.731547,30.262159 49.2,29.725314 49.2,29.563243 c 0,-0.326436 0.641925,-1.090516 0.916175,-1.090516 0.0961,0 0.174734,-0.08787 0.174734,-0.195256 0,-0.107392 0.458856,-0.857632 1.01968,-1.667201 0.560824,-0.809569 1.164298,-1.805794 1.341055,-2.213834 0.176758,-0.40804 0.617901,-1.044653 0.980321,-1.414697 0.362419,-0.370043 0.659044,-0.820043 0.659166,-1 1.22e-4,-0.179956 0.184213,-0.545294 0.409091,-0.811861 0.224878,-0.266568 0.506331,-0.634749 0.625449,-0.818182 0.178478,-0.27484 0.218462,-0.09671 0.227273,1.012525 0.01609,2.025768 0.519012,6.158527 1.097365,9.017597 0.672527,3.324629 1.002646,7.583964 0.843471,10.882813 -0.06825,1.414453 -0.197695,4.206267 -0.287656,6.204034 -0.102277,2.271248 -0.236262,3.656533 -0.357573,3.69697 -0.290109,0.0967 -0.233898,1.351043 0.08067,1.800156 0.159293,0.22742 0.202382,0.436838 0.102576,0.498522 -0.187485,0.115872 -1.631482,0.329762 -5.013616,0.742638 -1.2,0.146489 -2.55,0.341598 -3,0.433574 -0.45,0.09198 -1.431818,0.287253 -2.181818,0.43395 -1.831057,0.358145 -4.213411,1.136834 -5.545455,1.812569 -1.09294,0.55444 -3.33288,1.029852 -6.181818,1.312052 -0.7,0.06934 -1.886364,0.274873 -2.636364,0.45674 -0.75,0.181869 -1.731818,0.386066 -2.181818,0.453769 -0.45,0.0677 -1.775918,0.361486 -2.946485,0.652851 -3.866051,0.962295 -7.27407,1.130991 -9.235333,0.457149 z"
       id="path3155"
       inkscape:connector-curvature="0" />
  </g>
</svg>
